<svg xmlns="http://www.w3.org/2000/svg" width="46" height="46" viewBox="0 0 38 38" fill="none">
<path d="M19 3.1665C17.4342 3.1665 15.9036 3.63081 14.6017 4.5007C13.2998 5.3706 12.2851 6.60701 11.686 8.05359C11.0868 9.50018 10.93 11.092 11.2355 12.6276C11.5409 14.1633 12.2949 15.5739 13.4021 16.6811C14.5092 17.7883 15.9199 18.5423 17.4555 18.8477C18.9912 19.1532 20.583 18.9964 22.0296 18.3972C23.4762 17.798 24.7126 16.7833 25.5825 15.4814C26.4524 14.1795 26.9167 12.6489 26.9167 11.0832C26.9167 8.98354 26.0826 6.96991 24.5979 5.48524C23.1133 4.00058 21.0996 3.1665 19 3.1665ZM19 15.8332C18.0605 15.8332 17.1422 15.5546 16.361 15.0327C15.5799 14.5107 14.9711 13.7689 14.6116 12.9009C14.2521 12.033 14.158 11.0779 14.3413 10.1565C14.5245 9.23508 14.9769 8.38871 15.6412 7.72441C16.3055 7.06011 17.1519 6.60772 18.0733 6.42444C18.9947 6.24116 19.9498 6.33523 20.8177 6.69474C21.6857 7.05426 22.4275 7.66308 22.9495 8.44421C23.4714 9.22535 23.75 10.1437 23.75 11.0832C23.75 12.3429 23.2496 13.5511 22.3588 14.4419C21.468 15.3327 20.2598 15.8332 19 15.8332ZM33.25 33.2498V31.6665C33.25 28.727 32.0823 25.9079 30.0038 23.8294C27.9252 21.7509 25.1061 20.5832 22.1667 20.5832H15.8333C12.8939 20.5832 10.0748 21.7509 7.99623 23.8294C5.9177 25.9079 4.75 28.727 4.75 31.6665V33.2498H7.91667V31.6665C7.91667 29.5669 8.75074 27.5532 10.2354 26.0686C11.7201 24.5839 13.7337 23.7498 15.8333 23.7498H22.1667C24.2663 23.7498 26.2799 24.5839 27.7646 26.0686C29.2493 27.5532 30.0833 29.5669 30.0833 31.6665V33.2498H33.25Z" fill="white"/>
</svg>