<svg xmlns="http://www.w3.org/2000/svg" width="100%" height="100" viewBox="-5 13 48 48" fill="none">
  <path d="M19 6.33317C25.984 6.33317 31.6666 12.0158 31.6666 18.9998C31.6666 25.9839 25.984 31.6665 19 31.6665C12.0159 31.6665 6.33329 25.9839 6.33329 18.9998C6.33329 12.0158 12.0159 6.33317 19 6.33317ZM19 3.1665C10.2552 3.1665 3.16663 10.2551 3.16663 18.9998C3.16663 27.7446 10.2552 34.8332 19 34.8332C27.7447 34.8332 34.8333 27.7446 34.8333 18.9998C34.8333 10.2551 27.7447 3.1665 19 3.1665ZM20.5833 23.7498H17.4166V26.9165H20.5833V23.7498ZM17.4166 20.5832H20.5833L21.375 11.0832H16.625L17.4166 20.5832Z" fill="#A7CF41"/>
</svg>